<svg width="663" height="337" viewBox="0 0 663 337" fill="none" xmlns="http://www.w3.org/2000/svg">
<path d="M3.704 333V326.708C3.704 326.561 3.704 326.405 3.704 326.24C3.71267 326.067 3.72133 325.889 3.73 325.707C3.43533 325.993 3.093 326.244 2.703 326.461C2.313 326.669 1.91433 326.821 1.507 326.916L1.234 325.967C1.39 325.95 1.585 325.893 1.819 325.798C2.06167 325.694 2.313 325.568 2.573 325.421C2.84167 325.265 3.08867 325.1 3.314 324.927C3.53933 324.754 3.71267 324.585 3.834 324.42H4.744V333H3.704ZM9.84843 333.13C8.87776 333.13 8.1021 332.753 7.52143 331.999C6.94076 331.245 6.65043 330.149 6.65043 328.71C6.65043 327.271 6.94076 326.175 7.52143 325.421C8.1021 324.667 8.87776 324.29 9.84843 324.29C10.8278 324.29 11.6034 324.667 12.1754 325.421C12.7561 326.175 13.0464 327.271 13.0464 328.71C13.0464 330.149 12.7561 331.245 12.1754 331.999C11.6034 332.753 10.8278 333.13 9.84843 333.13ZM9.84843 332.194C10.3078 332.194 10.6934 332.064 11.0054 331.804C11.3261 331.535 11.5644 331.141 11.7204 330.621C11.8851 330.101 11.9674 329.464 11.9674 328.71C11.9674 327.956 11.8851 327.319 11.7204 326.799C11.5644 326.279 11.3261 325.889 11.0054 325.629C10.6934 325.36 10.3078 325.226 9.84843 325.226C9.3891 325.226 8.9991 325.36 8.67843 325.629C8.36643 325.889 8.1281 326.279 7.96343 326.799C7.80743 327.319 7.72943 327.956 7.72943 328.71C7.72943 329.464 7.80743 330.101 7.96343 330.621C8.1281 331.141 8.36643 331.535 8.67843 331.804C8.9991 332.064 9.3891 332.194 9.84843 332.194ZM17.6753 333.13C16.7047 333.13 15.929 332.753 15.3483 331.999C14.7677 331.245 14.4773 330.149 14.4773 328.71C14.4773 327.271 14.7677 326.175 15.3483 325.421C15.929 324.667 16.7047 324.29 17.6753 324.29C18.6547 324.29 19.4303 324.667 20.0023 325.421C20.583 326.175 20.8733 327.271 20.8733 328.71C20.8733 330.149 20.583 331.245 20.0023 331.999C19.4303 332.753 18.6547 333.13 17.6753 333.13ZM17.6753 332.194C18.1347 332.194 18.5203 332.064 18.8323 331.804C19.153 331.535 19.3913 331.141 19.5473 330.621C19.712 330.101 19.7943 329.464 19.7943 328.71C19.7943 327.956 19.712 327.319 19.5473 326.799C19.3913 326.279 19.153 325.889 18.8323 325.629C18.5203 325.36 18.1347 325.226 17.6753 325.226C17.216 325.226 16.826 325.36 16.5053 325.629C16.1933 325.889 15.955 326.279 15.7903 326.799C15.6343 327.319 15.5563 327.956 15.5563 328.71C15.5563 329.464 15.6343 330.101 15.7903 330.621C15.955 331.141 16.1933 331.535 16.5053 331.804C16.826 332.064 17.216 332.194 17.6753 332.194Z" fill="#FFF9F5"/>
<path d="M644.985 333V326.708C644.985 326.561 644.985 326.405 644.985 326.24C644.993 326.067 645.002 325.889 645.011 325.707C644.716 325.993 644.374 326.244 643.984 326.461C643.594 326.669 643.195 326.821 642.788 326.916L642.515 325.967C642.671 325.95 642.866 325.893 643.1 325.798C643.342 325.694 643.594 325.568 643.854 325.421C644.122 325.265 644.369 325.1 644.595 324.927C644.82 324.754 644.993 324.585 645.115 324.42H646.025V333H644.985ZM651.129 333.13C650.159 333.13 649.383 332.753 648.802 331.999C648.222 331.245 647.931 330.149 647.931 328.71C647.931 327.271 648.222 326.175 648.802 325.421C649.383 324.667 650.159 324.29 651.129 324.29C652.109 324.29 652.884 324.667 653.456 325.421C654.037 326.175 654.327 327.271 654.327 328.71C654.327 330.149 654.037 331.245 653.456 331.999C652.884 332.753 652.109 333.13 651.129 333.13ZM651.129 332.194C651.589 332.194 651.974 332.064 652.286 331.804C652.607 331.535 652.845 331.141 653.001 330.621C653.166 330.101 653.248 329.464 653.248 328.71C653.248 327.956 653.166 327.319 653.001 326.799C652.845 326.279 652.607 325.889 652.286 325.629C651.974 325.36 651.589 325.226 651.129 325.226C650.67 325.226 650.28 325.36 649.959 325.629C649.647 325.889 649.409 326.279 649.244 326.799C649.088 327.319 649.01 327.956 649.01 328.71C649.01 329.464 649.088 330.101 649.244 330.621C649.409 331.141 649.647 331.535 649.959 331.804C650.28 332.064 650.67 332.194 651.129 332.194ZM658.956 333.13C657.985 333.13 657.21 332.753 656.629 331.999C656.048 331.245 655.758 330.149 655.758 328.71C655.758 327.271 656.048 326.175 656.629 325.421C657.21 324.667 657.985 324.29 658.956 324.29C659.935 324.29 660.711 324.667 661.283 325.421C661.864 326.175 662.154 327.271 662.154 328.71C662.154 330.149 661.864 331.245 661.283 331.999C660.711 332.753 659.935 333.13 658.956 333.13ZM658.956 332.194C659.415 332.194 659.801 332.064 660.113 331.804C660.434 331.535 660.672 331.141 660.828 330.621C660.993 330.101 661.075 329.464 661.075 328.71C661.075 327.956 660.993 327.319 660.828 326.799C660.672 326.279 660.434 325.889 660.113 325.629C659.801 325.36 659.415 325.226 658.956 325.226C658.497 325.226 658.107 325.36 657.786 325.629C657.474 325.889 657.236 326.279 657.071 326.799C656.915 327.319 656.837 327.956 656.837 328.71C656.837 329.464 656.915 330.101 657.071 330.621C657.236 331.141 657.474 331.535 657.786 331.804C658.107 332.064 658.497 332.194 658.956 332.194Z" fill="#FFF9F5"/>
<path d="M62.0852 324.303C62.6398 324.303 63.1208 324.394 63.5282 324.576C63.9355 324.758 64.2518 325.018 64.4772 325.356C64.7025 325.685 64.8152 326.084 64.8152 326.552C64.8152 326.994 64.7068 327.384 64.4902 327.722C64.2822 328.051 63.9875 328.303 63.6062 328.476V328.489C64.0915 328.671 64.4772 328.948 64.7632 329.321C65.0578 329.694 65.2052 330.149 65.2052 330.686C65.2052 331.189 65.0752 331.622 64.8152 331.986C64.5552 332.35 64.1912 332.632 63.7232 332.831C63.2638 333.03 62.7178 333.13 62.0852 333.13C61.4612 333.13 60.9152 333.03 60.4472 332.831C59.9792 332.632 59.6152 332.35 59.3552 331.986C59.0952 331.622 58.9652 331.189 58.9652 330.686C58.9652 330.157 59.1082 329.707 59.3942 329.334C59.6802 328.953 60.0745 328.671 60.5772 328.489V328.476C60.2045 328.311 59.9055 328.064 59.6802 327.735C59.4635 327.397 59.3552 327.003 59.3552 326.552C59.3552 326.084 59.4678 325.685 59.6932 325.356C59.9185 325.018 60.2348 324.758 60.6422 324.576C61.0582 324.394 61.5392 324.303 62.0852 324.303ZM62.0852 325.278C61.5825 325.278 61.1795 325.399 60.8762 325.642C60.5815 325.885 60.4342 326.223 60.4342 326.656C60.4342 327.081 60.5858 327.414 60.8892 327.657C61.1925 327.9 61.5912 328.021 62.0852 328.021C62.5792 328.021 62.9778 327.9 63.2812 327.657C63.5845 327.414 63.7362 327.081 63.7362 326.656C63.7362 326.223 63.5888 325.885 63.2942 325.642C62.9995 325.399 62.5965 325.278 62.0852 325.278ZM62.0852 332.155C62.5098 332.155 62.8738 332.094 63.1772 331.973C63.4805 331.843 63.7145 331.661 63.8792 331.427C64.0438 331.184 64.1262 330.903 64.1262 330.582C64.1262 330.253 64.0395 329.971 63.8662 329.737C63.7015 329.494 63.4675 329.312 63.1642 329.191C62.8608 329.061 62.5012 328.996 62.0852 328.996C61.6778 328.996 61.3182 329.061 61.0062 329.191C60.7028 329.312 60.4645 329.494 60.2912 329.737C60.1265 329.971 60.0442 330.253 60.0442 330.582C60.0442 330.903 60.1265 331.184 60.2912 331.427C60.4558 331.661 60.6898 331.843 60.9932 331.973C61.3052 332.094 61.6692 332.155 62.0852 332.155ZM69.8749 333.13C68.9042 333.13 68.1286 332.753 67.5479 331.999C66.9672 331.245 66.6769 330.149 66.6769 328.71C66.6769 327.271 66.9672 326.175 67.5479 325.421C68.1286 324.667 68.9042 324.29 69.8749 324.29C70.8542 324.29 71.6299 324.667 72.2019 325.421C72.7826 326.175 73.0729 327.271 73.0729 328.71C73.0729 330.149 72.7826 331.245 72.2019 331.999C71.6299 332.753 70.8542 333.13 69.8749 333.13ZM69.8749 332.194C70.3342 332.194 70.7199 332.064 71.0319 331.804C71.3526 331.535 71.5909 331.141 71.7469 330.621C71.9116 330.101 71.9939 329.464 71.9939 328.71C71.9939 327.956 71.9116 327.319 71.7469 326.799C71.5909 326.279 71.3526 325.889 71.0319 325.629C70.7199 325.36 70.3342 325.226 69.8749 325.226C69.4156 325.226 69.0256 325.36 68.7049 325.629C68.3929 325.889 68.1546 326.279 67.9899 326.799C67.8339 327.319 67.7559 327.956 67.7559 328.71C67.7559 329.464 67.8339 330.101 67.9899 330.621C68.1546 331.141 68.3929 331.535 68.7049 331.804C69.0256 332.064 69.4156 332.194 69.8749 332.194Z" fill="#FFF9F5"/>
<path d="M593.085 324.303C593.64 324.303 594.121 324.394 594.528 324.576C594.936 324.758 595.252 325.018 595.477 325.356C595.703 325.685 595.815 326.084 595.815 326.552C595.815 326.994 595.707 327.384 595.49 327.722C595.282 328.051 594.988 328.303 594.606 328.476V328.489C595.092 328.671 595.477 328.948 595.763 329.321C596.058 329.694 596.205 330.149 596.205 330.686C596.205 331.189 596.075 331.622 595.815 331.986C595.555 332.35 595.191 332.632 594.723 332.831C594.264 333.03 593.718 333.13 593.085 333.13C592.461 333.13 591.915 333.03 591.447 332.831C590.979 332.632 590.615 332.35 590.355 331.986C590.095 331.622 589.965 331.189 589.965 330.686C589.965 330.157 590.108 329.707 590.394 329.334C590.68 328.953 591.075 328.671 591.577 328.489V328.476C591.205 328.311 590.906 328.064 590.68 327.735C590.464 327.397 590.355 327.003 590.355 326.552C590.355 326.084 590.468 325.685 590.693 325.356C590.919 325.018 591.235 324.758 591.642 324.576C592.058 324.394 592.539 324.303 593.085 324.303ZM593.085 325.278C592.583 325.278 592.18 325.399 591.876 325.642C591.582 325.885 591.434 326.223 591.434 326.656C591.434 327.081 591.586 327.414 591.889 327.657C592.193 327.9 592.591 328.021 593.085 328.021C593.579 328.021 593.978 327.9 594.281 327.657C594.585 327.414 594.736 327.081 594.736 326.656C594.736 326.223 594.589 325.885 594.294 325.642C594 325.399 593.597 325.278 593.085 325.278ZM593.085 332.155C593.51 332.155 593.874 332.094 594.177 331.973C594.481 331.843 594.715 331.661 594.879 331.427C595.044 331.184 595.126 330.903 595.126 330.582C595.126 330.253 595.04 329.971 594.866 329.737C594.702 329.494 594.468 329.312 594.164 329.191C593.861 329.061 593.501 328.996 593.085 328.996C592.678 328.996 592.318 329.061 592.006 329.191C591.703 329.312 591.465 329.494 591.291 329.737C591.127 329.971 591.044 330.253 591.044 330.582C591.044 330.903 591.127 331.184 591.291 331.427C591.456 331.661 591.69 331.843 591.993 331.973C592.305 332.094 592.669 332.155 593.085 332.155ZM600.875 333.13C599.904 333.13 599.129 332.753 598.548 331.999C597.967 331.245 597.677 330.149 597.677 328.71C597.677 327.271 597.967 326.175 598.548 325.421C599.129 324.667 599.904 324.29 600.875 324.29C601.854 324.29 602.63 324.667 603.202 325.421C603.783 326.175 604.073 327.271 604.073 328.71C604.073 330.149 603.783 331.245 603.202 331.999C602.63 332.753 601.854 333.13 600.875 333.13ZM600.875 332.194C601.334 332.194 601.72 332.064 602.032 331.804C602.353 331.535 602.591 331.141 602.747 330.621C602.912 330.101 602.994 329.464 602.994 328.71C602.994 327.956 602.912 327.319 602.747 326.799C602.591 326.279 602.353 325.889 602.032 325.629C601.72 325.36 601.334 325.226 600.875 325.226C600.416 325.226 600.026 325.36 599.705 325.629C599.393 325.889 599.155 326.279 598.99 326.799C598.834 327.319 598.756 327.956 598.756 328.71C598.756 329.464 598.834 330.101 598.99 330.621C599.155 331.141 599.393 331.535 599.705 331.804C600.026 332.064 600.416 332.194 600.875 332.194Z" fill="#FFF9F5"/>
<path d="M123.331 324.29C123.79 324.29 124.189 324.355 124.527 324.485C124.874 324.606 125.173 324.801 125.424 325.07C125.675 325.33 125.888 325.672 126.061 326.097L125.099 326.552C124.969 326.153 124.757 325.841 124.462 325.616C124.176 325.382 123.777 325.265 123.266 325.265C122.893 325.265 122.564 325.36 122.278 325.551C121.992 325.733 121.749 325.989 121.55 326.318C121.351 326.647 121.199 327.033 121.095 327.475C121 327.917 120.952 328.394 120.952 328.905C120.952 328.922 120.952 328.948 120.952 328.983C120.952 329.018 120.952 329.07 120.952 329.139H121.004C121.099 328.766 121.273 328.467 121.524 328.242C121.784 328.008 122.074 327.839 122.395 327.735C122.724 327.622 123.045 327.566 123.357 327.566C123.938 327.566 124.445 327.679 124.878 327.904C125.311 328.129 125.645 328.45 125.879 328.866C126.122 329.282 126.243 329.776 126.243 330.348C126.243 330.911 126.122 331.405 125.879 331.83C125.636 332.246 125.294 332.567 124.852 332.792C124.419 333.017 123.899 333.13 123.292 333.13C122.573 333.13 121.966 332.939 121.472 332.558C120.978 332.177 120.605 331.657 120.354 330.998C120.103 330.331 119.977 329.568 119.977 328.71C119.977 327.748 120.124 326.942 120.419 326.292C120.714 325.633 121.112 325.135 121.615 324.797C122.126 324.459 122.698 324.29 123.331 324.29ZM123.279 328.567C122.906 328.567 122.577 328.645 122.291 328.801C122.014 328.948 121.797 329.156 121.641 329.425C121.485 329.685 121.407 329.988 121.407 330.335C121.407 330.664 121.489 330.968 121.654 331.245C121.819 331.514 122.04 331.73 122.317 331.895C122.603 332.051 122.924 332.129 123.279 332.129C123.868 332.129 124.328 331.973 124.657 331.661C124.986 331.34 125.151 330.898 125.151 330.335C125.151 329.971 125.077 329.659 124.93 329.399C124.783 329.13 124.57 328.927 124.293 328.788C124.016 328.641 123.678 328.567 123.279 328.567ZM130.824 333.13C129.853 333.13 129.078 332.753 128.497 331.999C127.916 331.245 127.626 330.149 127.626 328.71C127.626 327.271 127.916 326.175 128.497 325.421C129.078 324.667 129.853 324.29 130.824 324.29C131.803 324.29 132.579 324.667 133.151 325.421C133.732 326.175 134.022 327.271 134.022 328.71C134.022 330.149 133.732 331.245 133.151 331.999C132.579 332.753 131.803 333.13 130.824 333.13ZM130.824 332.194C131.283 332.194 131.669 332.064 131.981 331.804C132.302 331.535 132.54 331.141 132.696 330.621C132.861 330.101 132.943 329.464 132.943 328.71C132.943 327.956 132.861 327.319 132.696 326.799C132.54 326.279 132.302 325.889 131.981 325.629C131.669 325.36 131.283 325.226 130.824 325.226C130.365 325.226 129.975 325.36 129.654 325.629C129.342 325.889 129.104 326.279 128.939 326.799C128.783 327.319 128.705 327.956 128.705 328.71C128.705 329.464 128.783 330.101 128.939 330.621C129.104 331.141 129.342 331.535 129.654 331.804C129.975 332.064 130.365 332.194 130.824 332.194Z" fill="#FFF9F5"/>
<path d="M532.331 324.29C532.79 324.29 533.189 324.355 533.527 324.485C533.874 324.606 534.173 324.801 534.424 325.07C534.675 325.33 534.888 325.672 535.061 326.097L534.099 326.552C533.969 326.153 533.757 325.841 533.462 325.616C533.176 325.382 532.777 325.265 532.266 325.265C531.893 325.265 531.564 325.36 531.278 325.551C530.992 325.733 530.749 325.989 530.55 326.318C530.351 326.647 530.199 327.033 530.095 327.475C530 327.917 529.952 328.394 529.952 328.905C529.952 328.922 529.952 328.948 529.952 328.983C529.952 329.018 529.952 329.07 529.952 329.139H530.004C530.099 328.766 530.273 328.467 530.524 328.242C530.784 328.008 531.074 327.839 531.395 327.735C531.724 327.622 532.045 327.566 532.357 327.566C532.938 327.566 533.445 327.679 533.878 327.904C534.311 328.129 534.645 328.45 534.879 328.866C535.122 329.282 535.243 329.776 535.243 330.348C535.243 330.911 535.122 331.405 534.879 331.83C534.636 332.246 534.294 332.567 533.852 332.792C533.419 333.017 532.899 333.13 532.292 333.13C531.573 333.13 530.966 332.939 530.472 332.558C529.978 332.177 529.605 331.657 529.354 330.998C529.103 330.331 528.977 329.568 528.977 328.71C528.977 327.748 529.124 326.942 529.419 326.292C529.714 325.633 530.112 325.135 530.615 324.797C531.126 324.459 531.698 324.29 532.331 324.29ZM532.279 328.567C531.906 328.567 531.577 328.645 531.291 328.801C531.014 328.948 530.797 329.156 530.641 329.425C530.485 329.685 530.407 329.988 530.407 330.335C530.407 330.664 530.489 330.968 530.654 331.245C530.819 331.514 531.04 331.73 531.317 331.895C531.603 332.051 531.924 332.129 532.279 332.129C532.868 332.129 533.328 331.973 533.657 331.661C533.986 331.34 534.151 330.898 534.151 330.335C534.151 329.971 534.077 329.659 533.93 329.399C533.783 329.13 533.57 328.927 533.293 328.788C533.016 328.641 532.678 328.567 532.279 328.567ZM539.824 333.13C538.853 333.13 538.078 332.753 537.497 331.999C536.916 331.245 536.626 330.149 536.626 328.71C536.626 327.271 536.916 326.175 537.497 325.421C538.078 324.667 538.853 324.29 539.824 324.29C540.803 324.29 541.579 324.667 542.151 325.421C542.732 326.175 543.022 327.271 543.022 328.71C543.022 330.149 542.732 331.245 542.151 331.999C541.579 332.753 540.803 333.13 539.824 333.13ZM539.824 332.194C540.283 332.194 540.669 332.064 540.981 331.804C541.302 331.535 541.54 331.141 541.696 330.621C541.861 330.101 541.943 329.464 541.943 328.71C541.943 327.956 541.861 327.319 541.696 326.799C541.54 326.279 541.302 325.889 540.981 325.629C540.669 325.36 540.283 325.226 539.824 325.226C539.365 325.226 538.975 325.36 538.654 325.629C538.342 325.889 538.104 326.279 537.939 326.799C537.783 327.319 537.705 327.956 537.705 328.71C537.705 329.464 537.783 330.101 537.939 330.621C538.104 331.141 538.342 331.535 538.654 331.804C538.975 332.064 539.365 332.194 539.824 332.194Z" fill="#FFF9F5"/>
<path d="M186.871 333V330.751H182.685V329.984L186.598 324.42H187.911V329.854H189.432V330.751H187.911V333H186.871ZM183.79 329.854H186.871V326.643C186.871 326.418 186.875 326.188 186.884 325.954C186.901 325.72 186.914 325.49 186.923 325.265H186.897C186.793 325.482 186.659 325.724 186.494 325.993C186.329 326.262 186.178 326.496 186.039 326.695L183.79 329.854ZM193.843 333.13C192.873 333.13 192.097 332.753 191.516 331.999C190.936 331.245 190.645 330.149 190.645 328.71C190.645 327.271 190.936 326.175 191.516 325.421C192.097 324.667 192.873 324.29 193.843 324.29C194.823 324.29 195.598 324.667 196.17 325.421C196.751 326.175 197.041 327.271 197.041 328.71C197.041 330.149 196.751 331.245 196.17 331.999C195.598 332.753 194.823 333.13 193.843 333.13ZM193.843 332.194C194.303 332.194 194.688 332.064 195 331.804C195.321 331.535 195.559 331.141 195.715 330.621C195.88 330.101 195.962 329.464 195.962 328.71C195.962 327.956 195.88 327.319 195.715 326.799C195.559 326.279 195.321 325.889 195 325.629C194.688 325.36 194.303 325.226 193.843 325.226C193.384 325.226 192.994 325.36 192.673 325.629C192.361 325.889 192.123 326.279 191.958 326.799C191.802 327.319 191.724 327.956 191.724 328.71C191.724 329.464 191.802 330.101 191.958 330.621C192.123 331.141 192.361 331.535 192.673 331.804C192.994 332.064 193.384 332.194 193.843 332.194Z" fill="#FFF9F5"/>
<path d="M470.871 333V330.751H466.685V329.984L470.598 324.42H471.911V329.854H473.432V330.751H471.911V333H470.871ZM467.79 329.854H470.871V326.643C470.871 326.418 470.875 326.188 470.884 325.954C470.901 325.72 470.914 325.49 470.923 325.265H470.897C470.793 325.482 470.659 325.724 470.494 325.993C470.329 326.262 470.178 326.496 470.039 326.695L467.79 329.854ZM477.843 333.13C476.873 333.13 476.097 332.753 475.516 331.999C474.936 331.245 474.645 330.149 474.645 328.71C474.645 327.271 474.936 326.175 475.516 325.421C476.097 324.667 476.873 324.29 477.843 324.29C478.823 324.29 479.598 324.667 480.17 325.421C480.751 326.175 481.041 327.271 481.041 328.71C481.041 330.149 480.751 331.245 480.17 331.999C479.598 332.753 478.823 333.13 477.843 333.13ZM477.843 332.194C478.303 332.194 478.688 332.064 479 331.804C479.321 331.535 479.559 331.141 479.715 330.621C479.88 330.101 479.962 329.464 479.962 328.71C479.962 327.956 479.88 327.319 479.715 326.799C479.559 326.279 479.321 325.889 479 325.629C478.688 325.36 478.303 325.226 477.843 325.226C477.384 325.226 476.994 325.36 476.673 325.629C476.361 325.889 476.123 326.279 475.958 326.799C475.802 327.319 475.724 327.956 475.724 328.71C475.724 329.464 475.802 330.101 475.958 330.621C476.123 331.141 476.361 331.535 476.673 331.804C476.994 332.064 477.384 332.194 477.843 332.194Z" fill="#FFF9F5"/>
<path d="M245.259 333V332.155C246.117 331.522 246.832 330.968 247.404 330.491C247.985 330.014 248.448 329.581 248.795 329.191C249.142 328.801 249.389 328.433 249.536 328.086C249.683 327.731 249.757 327.362 249.757 326.981C249.757 326.47 249.592 326.058 249.263 325.746C248.942 325.425 248.5 325.265 247.937 325.265C247.348 325.265 246.875 325.46 246.52 325.85C246.165 326.231 245.957 326.743 245.896 327.384L244.986 326.838C245.064 326.335 245.224 325.893 245.467 325.512C245.718 325.131 246.052 324.832 246.468 324.615C246.893 324.398 247.395 324.29 247.976 324.29C248.418 324.29 248.812 324.355 249.159 324.485C249.514 324.615 249.818 324.801 250.069 325.044C250.32 325.278 250.511 325.56 250.641 325.889C250.78 326.218 250.849 326.582 250.849 326.981C250.849 327.518 250.719 328.047 250.459 328.567C250.199 329.078 249.77 329.616 249.172 330.179C248.574 330.742 247.764 331.366 246.741 332.051V332.064C246.836 332.055 246.966 332.051 247.131 332.051C247.304 332.042 247.473 332.038 247.638 332.038C247.811 332.029 247.941 332.025 248.028 332.025H251.031V333H245.259ZM255.659 333.13C254.688 333.13 253.913 332.753 253.332 331.999C252.751 331.245 252.461 330.149 252.461 328.71C252.461 327.271 252.751 326.175 253.332 325.421C253.913 324.667 254.688 324.29 255.659 324.29C256.638 324.29 257.414 324.667 257.986 325.421C258.567 326.175 258.857 327.271 258.857 328.71C258.857 330.149 258.567 331.245 257.986 331.999C257.414 332.753 256.638 333.13 255.659 333.13ZM255.659 332.194C256.118 332.194 256.504 332.064 256.816 331.804C257.137 331.535 257.375 331.141 257.531 330.621C257.696 330.101 257.778 329.464 257.778 328.71C257.778 327.956 257.696 327.319 257.531 326.799C257.375 326.279 257.137 325.889 256.816 325.629C256.504 325.36 256.118 325.226 255.659 325.226C255.2 325.226 254.81 325.36 254.489 325.629C254.177 325.889 253.939 326.279 253.774 326.799C253.618 327.319 253.54 327.956 253.54 328.71C253.54 329.464 253.618 330.101 253.774 330.621C253.939 331.141 254.177 331.535 254.489 331.804C254.81 332.064 255.2 332.194 255.659 332.194Z" fill="#FFF9F5"/>
<path d="M403.259 333V332.155C404.117 331.522 404.832 330.968 405.404 330.491C405.985 330.014 406.448 329.581 406.795 329.191C407.142 328.801 407.389 328.433 407.536 328.086C407.683 327.731 407.757 327.362 407.757 326.981C407.757 326.47 407.592 326.058 407.263 325.746C406.942 325.425 406.5 325.265 405.937 325.265C405.348 325.265 404.875 325.46 404.52 325.85C404.165 326.231 403.957 326.743 403.896 327.384L402.986 326.838C403.064 326.335 403.224 325.893 403.467 325.512C403.718 325.131 404.052 324.832 404.468 324.615C404.893 324.398 405.395 324.29 405.976 324.29C406.418 324.29 406.812 324.355 407.159 324.485C407.514 324.615 407.818 324.801 408.069 325.044C408.32 325.278 408.511 325.56 408.641 325.889C408.78 326.218 408.849 326.582 408.849 326.981C408.849 327.518 408.719 328.047 408.459 328.567C408.199 329.078 407.77 329.616 407.172 330.179C406.574 330.742 405.764 331.366 404.741 332.051V332.064C404.836 332.055 404.966 332.051 405.131 332.051C405.304 332.042 405.473 332.038 405.638 332.038C405.811 332.029 405.941 332.025 406.028 332.025H409.031V333H403.259ZM413.659 333.13C412.688 333.13 411.913 332.753 411.332 331.999C410.751 331.245 410.461 330.149 410.461 328.71C410.461 327.271 410.751 326.175 411.332 325.421C411.913 324.667 412.688 324.29 413.659 324.29C414.638 324.29 415.414 324.667 415.986 325.421C416.567 326.175 416.857 327.271 416.857 328.71C416.857 330.149 416.567 331.245 415.986 331.999C415.414 332.753 414.638 333.13 413.659 333.13ZM413.659 332.194C414.118 332.194 414.504 332.064 414.816 331.804C415.137 331.535 415.375 331.141 415.531 330.621C415.696 330.101 415.778 329.464 415.778 328.71C415.778 327.956 415.696 327.319 415.531 326.799C415.375 326.279 415.137 325.889 414.816 325.629C414.504 325.36 414.118 325.226 413.659 325.226C413.2 325.226 412.81 325.36 412.489 325.629C412.177 325.889 411.939 326.279 411.774 326.799C411.618 327.319 411.54 327.956 411.54 328.71C411.54 329.464 411.618 330.101 411.774 330.621C411.939 331.141 412.177 331.535 412.489 331.804C412.81 332.064 413.2 332.194 413.659 332.194Z" fill="#FFF9F5"/>
<path d="M1.2002 315.228L64.2285 120.924L229.226 1H433.567L597.862 120.924L661.191 315.228" stroke="#FFF9F5" stroke-opacity="0.5"/>
<path d="M64.6309 315.63L115.544 158.245L248.827 61.1075H413.89L546.606 158.245L597.762 315.63" stroke="#FFF9F5" stroke-opacity="0.5"/>
<path d="M126.454 315.63L165.559 194.985L267.93 120.523H394.711L496.646 194.985L535.938 315.63" stroke="#FFF9F5" stroke-opacity="0.5"/>
<path d="M189.081 315.63L216.225 231.724L287.282 179.938H375.283L446.038 231.724L473.311 315.63" stroke="#FFF9F5" stroke-opacity="0.5"/>
<path d="M252.511 315.63L267.539 268.96L306.882 240.156H355.605L394.78 268.96L409.881 315.63" stroke="#FFF9F5" stroke-opacity="0.5"/>
<path d="M661.393 315.159L1.00001 315.159" stroke="#FFF9F5" stroke-width="3"/>
<path d="M597.963 120.855L318.649 323.788" stroke="#FFF9F5" stroke-width="3"/>
<path d="M433.366 1.22131L326.678 329.574" stroke="#FFF9F5" stroke-width="3"/>
<path d="M229.427 1.22131L336.115 329.574" stroke="#FFF9F5" stroke-width="3"/>
<path d="M64.0283 120.855L343.342 323.788" stroke="#FFF9F5" stroke-width="3"/>
</svg>
