<svg width="20" height="19" viewBox="0 0 20 19" fill="none" xmlns="http://www.w3.org/2000/svg">
<path fill-rule="evenodd" clip-rule="evenodd" d="M19.4082 17.6276C17.9803 15.1591 15.78 13.3891 13.2122 12.5501C15.823 10.9959 17.0736 7.88893 16.2676 4.95945C15.4616 2.02996 12.7977 0 9.75941 0C6.72108 0 4.0572 2.02996 3.25123 4.95945C2.44526 7.88893 3.69586 10.9959 6.3066 12.5501C3.73878 13.3882 1.53847 15.1582 0.110659 17.6276C-0.0318873 17.86 -0.0370635 18.1515 0.0971404 18.3888C0.231344 18.6261 0.483785 18.772 0.756434 18.7696C1.02908 18.7673 1.27898 18.6172 1.4091 18.3776C3.17535 15.3251 6.29722 13.5026 9.75941 13.5026C13.2216 13.5026 16.3435 15.3251 18.1097 18.3776C18.2398 18.6172 18.4897 18.7673 18.7624 18.7696C19.035 18.772 19.2875 18.6261 19.4217 18.3888C19.5559 18.1515 19.5507 17.86 19.4082 17.6276ZM4.50941 6.75255C4.50941 3.85306 6.85991 1.50255 9.75941 1.50255C12.6589 1.50255 15.0094 3.85306 15.0094 6.75255C15.0094 9.65205 12.6589 12.0026 9.75941 12.0026C6.8612 11.9994 4.51251 9.65076 4.50941 6.75255Z" fill="#FFF9F5"/>
</svg>
