<svg width="20" height="20" viewBox="0 0 20 20" fill="none" xmlns="http://www.w3.org/2000/svg">
<path fill-rule="evenodd" clip-rule="evenodd" d="M9.81011 5.31011C7.32483 5.31011 5.31011 7.32483 5.31011 9.81011C5.31011 12.2954 7.32483 14.3101 9.81011 14.3101C12.2954 14.3101 14.3101 12.2954 14.3101 9.81011C14.3075 7.3259 12.2943 5.31269 9.81011 5.31011V5.31011ZM9.81011 12.8101C8.15325 12.8101 6.81011 11.467 6.81011 9.81011C6.81011 8.15325 8.15325 6.81011 9.81011 6.81011C11.467 6.81011 12.8101 8.15325 12.8101 9.81011C12.8101 11.467 11.467 12.8101 9.81011 12.8101V12.8101ZM18.0601 10.0126C18.0639 9.87761 18.0639 9.74261 18.0601 9.60761L19.4589 7.86011C19.6076 7.67404 19.6591 7.42837 19.5976 7.19823C19.3683 6.3363 19.0253 5.50872 18.5776 4.7373C18.4588 4.5326 18.2502 4.39603 18.0151 4.36886L15.7914 4.12136C15.6989 4.02386 15.6051 3.93011 15.5101 3.84011L15.2476 1.61073C15.2202 1.37542 15.0833 1.16687 14.8782 1.04823C14.1065 0.601372 13.279 0.258704 12.4173 0.0291718C12.187 -0.0320543 11.9413 0.019796 11.7554 0.168859L10.0126 1.56011C9.87761 1.56011 9.74261 1.56011 9.60761 1.56011L7.86011 0.164172C7.67404 0.0154351 7.42837 -0.0360639 7.19823 0.0254217C6.33644 0.255135 5.50891 0.598125 4.7373 1.04542C4.5326 1.16428 4.39603 1.37279 4.36886 1.60792L4.12136 3.83542C4.02386 3.92855 3.93011 4.0223 3.84011 4.11667L1.61073 4.37261C1.37542 4.39999 1.16687 4.53693 1.04823 4.74198C0.601372 5.5137 0.258704 6.34121 0.0291718 7.20292C-0.0320543 7.43321 0.019796 7.67889 0.168859 7.8648L1.56011 9.60761C1.56011 9.74261 1.56011 9.87761 1.56011 10.0126L0.164172 11.7601C0.0154351 11.9462 -0.0360639 12.1918 0.0254217 12.422C0.254724 13.2839 0.597736 14.1115 1.04542 14.8829C1.16428 15.0876 1.37279 15.2242 1.60792 15.2514L3.83167 15.4989C3.9248 15.5964 4.01855 15.6901 4.11292 15.7801L4.37261 18.0095C4.39999 18.2448 4.53693 18.4533 4.74198 18.572C5.5137 19.0188 6.34121 19.3615 7.20292 19.591C7.43321 19.6523 7.67889 19.6004 7.8648 19.4514L9.60761 18.0601C9.74261 18.0639 9.87761 18.0639 10.0126 18.0601L11.7601 19.4589C11.9462 19.6076 12.1918 19.6591 12.422 19.5976C13.2839 19.3683 14.1115 19.0253 14.8829 18.5776C15.0876 18.4588 15.2242 18.2502 15.2514 18.0151L15.4989 15.7914C15.5964 15.6989 15.6901 15.6051 15.7801 15.5101L18.0095 15.2476C18.2448 15.2202 18.4533 15.0833 18.572 14.8782C19.0188 14.1065 19.3615 13.279 19.591 12.4173C19.6523 12.187 19.6004 11.9413 19.4514 11.7554L18.0601 10.0126ZM16.5507 9.40323C16.5667 9.67425 16.5667 9.94597 16.5507 10.217C16.5396 10.4025 16.5977 10.5856 16.7139 10.7307L18.0442 12.3929C17.8915 12.878 17.6961 13.3486 17.4601 13.7992L15.3414 14.0392C15.1568 14.0597 14.9865 14.1478 14.8632 14.2867C14.6828 14.4896 14.4906 14.6818 14.2876 14.8623C14.1488 14.9855 14.0606 15.1559 14.0401 15.3404L13.8048 17.4573C13.3543 17.6934 12.8837 17.8888 12.3985 18.0414L10.7354 16.711C10.6023 16.6047 10.437 16.5469 10.2667 16.547H10.2217C9.95066 16.5629 9.67894 16.5629 9.40792 16.547C9.22237 16.5358 9.03929 16.5939 8.89417 16.7101L7.2273 18.0414C6.74217 17.8887 6.27157 17.6933 5.82105 17.4573L5.58105 15.3414C5.56056 15.1568 5.47238 14.9865 5.33355 14.8632C5.13059 14.6828 4.93838 14.4906 4.75792 14.2876C4.63467 14.1488 4.46431 14.0606 4.2798 14.0401L2.16292 13.8039C1.92685 13.3534 1.73139 12.8828 1.57886 12.3976L2.90917 10.7345C3.02533 10.5894 3.08347 10.4063 3.0723 10.2207C3.05636 9.94972 3.05636 9.678 3.0723 9.40698C3.08347 9.22144 3.02533 9.03835 2.90917 8.89323L1.57886 7.2273C1.73151 6.74217 1.92696 6.27157 2.16292 5.82105L4.27886 5.58105C4.46337 5.56056 4.63373 5.47238 4.75698 5.33355C4.93744 5.13059 5.12965 4.93838 5.33261 4.75792C5.47199 4.63459 5.56054 4.46384 5.58105 4.27886L5.81636 2.16292C6.26683 1.92685 6.73744 1.73139 7.22261 1.57886L8.88573 2.90917C9.03085 3.02533 9.21394 3.08347 9.39948 3.0723C9.6705 3.05636 9.94222 3.05636 10.2132 3.0723C10.3988 3.08347 10.5819 3.02533 10.727 2.90917L12.3929 1.57886C12.878 1.73151 13.3486 1.92696 13.7992 2.16292L14.0392 4.27886C14.0597 4.46337 14.1478 4.63373 14.2867 4.75698C14.4896 4.93744 14.6818 5.12965 14.8623 5.33261C14.9855 5.47144 15.1559 5.55963 15.3404 5.58011L17.4573 5.81542C17.6934 6.26589 17.8888 6.7365 18.0414 7.22167L16.711 8.8848C16.5938 9.03114 16.5356 9.21611 16.5479 9.40323H16.5507Z" fill="#FFF9F5"/>
</svg>
