<svg width="20" height="20" viewBox="0 0 20 20" fill="none" xmlns="http://www.w3.org/2000/svg">
<path fill-rule="evenodd" clip-rule="evenodd" d="M10.875 14.625C10.875 15.2463 10.3713 15.75 9.75 15.75C9.12868 15.75 8.625 15.2463 8.625 14.625C8.625 14.0037 9.12868 13.5 9.75 13.5C10.3713 13.5 10.875 14.0037 10.875 14.625V14.625ZM9.75 4.5C7.68187 4.5 6 6.01406 6 7.875V8.25C6 8.66421 6.33579 9 6.75 9C7.16421 9 7.5 8.66421 7.5 8.25V7.875C7.5 6.84375 8.50969 6 9.75 6C10.9903 6 12 6.84375 12 7.875C12 8.90625 10.9903 9.75 9.75 9.75C9.33579 9.75 9 10.0858 9 10.5V11.25C9 11.6642 9.33579 12 9.75 12C10.1642 12 10.5 11.6642 10.5 11.25V11.1825C12.21 10.8684 13.5 9.50437 13.5 7.875C13.5 6.01406 11.8181 4.5 9.75 4.5V4.5ZM19.5 9.75C19.5 15.1348 15.1348 19.5 9.75 19.5C4.36522 19.5 0 15.1348 0 9.75C0 4.36522 4.36522 0 9.75 0C15.1324 0.00568393 19.4943 4.36758 19.5 9.75V9.75ZM18 9.75C18 5.19365 14.3063 1.5 9.75 1.5C5.19365 1.5 1.5 5.19365 1.5 9.75C1.5 14.3063 5.19365 18 9.75 18C14.3042 17.9948 17.9948 14.3042 18 9.75V9.75Z" fill="#FFF9F5"/>
</svg>
