<svg width="18" height="20" viewBox="0 0 18 20" fill="none" xmlns="http://www.w3.org/2000/svg">
<path fill-rule="evenodd" clip-rule="evenodd" d="M17.7927 14.2444C17.2724 13.3481 16.4989 10.8122 16.4989 7.5C16.4989 3.35786 13.141 0 8.99891 0C4.85678 0 1.49891 3.35786 1.49891 7.5C1.49891 10.8131 0.724538 13.3481 0.204226 14.2444C-0.0662205 14.7081 -0.0681874 15.2811 0.199069 15.7467C0.466324 16.2123 0.962047 16.4996 1.49891 16.5H5.32485C5.68158 18.2456 7.21727 19.4992 8.99891 19.4992C10.7806 19.4992 12.3162 18.2456 12.673 16.5H16.4989C17.0356 16.4993 17.531 16.2119 17.7981 15.7463C18.0651 15.2807 18.063 14.708 17.7927 14.2444ZM8.99891 18C8.04566 17.9997 7.19604 17.3987 6.87829 16.5H11.1195C10.8018 17.3987 9.95217 17.9997 8.99891 18ZM1.49891 15C2.22079 13.7587 2.99891 10.8825 2.99891 7.5C2.99891 4.18629 5.68521 1.5 8.99891 1.5C12.3126 1.5 14.9989 4.18629 14.9989 7.5C14.9989 10.8797 15.7752 13.7559 16.4989 15H1.49891Z" fill="#FFF9F5"/>
</svg>
